<?xml version="1.0" encoding="UTF-8" standalone="no"?>
<!-- Created with Inkscape (http://www.inkscape.org/) -->

<svg
   width="1200"
   height="1200"
   viewBox="0 0 317.49999 317.5"
   version="1.1"
   id="svg1"
   xmlns:xlink="http://www.w3.org/1999/xlink"
   xmlns="http://www.w3.org/2000/svg"
   xmlns:svg="http://www.w3.org/2000/svg">
  <defs
     id="defs1">
    <linearGradient
       id="swatch6">
      <stop
         style="stop-color:#000000;stop-opacity:1;"
         offset="0"
         id="stop6" />
    </linearGradient>
    <linearGradient
       id="swatch1">
      <stop
         style="stop-color:#ffffff;stop-opacity:1;"
         offset="0"
         id="stop1" />
    </linearGradient>
    <linearGradient
       id="swatch5">
      <stop
         style="stop-color:#000000;stop-opacity:1;"
         offset="0"
         id="stop5" />
    </linearGradient>
    <linearGradient
       id="swatch4">
      <stop
         style="stop-color:#000000;stop-opacity:1;"
         offset="0"
         id="stop4" />
    </linearGradient>
    <linearGradient
       id="swatch3">
      <stop
         style="stop-color:#000000;stop-opacity:1;"
         offset="0"
         id="stop3" />
    </linearGradient>
    <linearGradient
       id="swatch2">
      <stop
         style="stop-color:#000000;stop-opacity:1;"
         offset="0"
         id="stop2" />
    </linearGradient>
    <linearGradient
       xlink:href="#swatch2"
       id="linearGradient2"
       x1="68.319633"
       y1="83.267403"
       x2="85.478043"
       y2="83.267403"
       gradientUnits="userSpaceOnUse"
       gradientTransform="translate(-0.98250626,23.088897)" />
    <linearGradient
       xlink:href="#swatch3"
       id="linearGradient3"
       x1="118.392"
       y1="246.99115"
       x2="189.13245"
       y2="246.99115"
       gradientUnits="userSpaceOnUse"
       gradientTransform="rotate(-2.6322006,133.32321,229.42721)" />
    <linearGradient
       xlink:href="#swatch4"
       id="linearGradient4"
       x1="68.896828"
       y1="148.12358"
       x2="253.17125"
       y2="148.12358"
       gradientUnits="userSpaceOnUse"
       gradientTransform="translate(-2.28384,-25.614834)" />
    <linearGradient
       xlink:href="#swatch6"
       id="linearGradient6"
       x1="126.00643"
       y1="270.42072"
       x2="164.81543"
       y2="270.42072"
       gradientUnits="userSpaceOnUse"
       gradientTransform="matrix(0.78632279,0,0,1.0621955,25.766024,-22.447401)" />
    <linearGradient
       xlink:href="#swatch6"
       id="linearGradient10"
       gradientUnits="userSpaceOnUse"
       gradientTransform="matrix(0.78632279,0,0,1.0621955,25.766024,-22.447401)"
       x1="126.00643"
       y1="270.42072"
       x2="164.81543"
       y2="270.42072" />
  </defs>
  <g
     id="layer1"
     style="display:inline">
    <path
       style="font-size:377.394px;font-family:'Arial Rounded MT Bold';-inkscape-font-specification:'Arial Rounded MT Bold, ';display:none;opacity:1;fill:#fff415;fill-opacity:1;stroke:url(#linearGradient4);stroke-width:5;stroke-dasharray:none"
       d="m 187.96961,214.62345 c -6.06312,11.94475 -13.33804,22.29469 -23.57473,29.54755 -5.76574,4.25982 -14.97177,3.9589 -21.06384,-0.0186 -9.13486,-5.7935 -23.47765,-30.75679 -22.72811,-29.69802 0.74954,1.05878 33.76517,76.14996 33.76517,76.14996 10.70922,-25.32689 39.66463,-87.92564 33.60151,-75.98089 z"
       id="path4" />
    <path
       style="fill:#ffec00;fill-opacity:1;stroke:url(#linearGradient6);stroke-width:4.56953"
       transform="translate(-9.5914152e-4,3.2885518)"
       d="m 158.84491,18.962637 c -17.46794,0.267524 -32.90843,3.862272 -46.32135,10.784191 -1.0388,0.536085 -2.7016,1.446209 -3.71656,2.02619 -12.766057,7.294926 -22.702381,16.307772 -29.809362,27.038562 -0.645472,0.974594 -1.65057,2.581878 -2.250332,3.585269 -6.326356,10.583878 -9.69108,21.070713 -10.093562,31.460365 -0.04525,1.16804 -0.05308,3.066902 0.06956,4.228912 0.450594,4.269374 2.278336,8.321324 5.483004,12.155854 0.749517,0.89683 2.073587,2.25714 2.961856,3.01665 3.960651,3.38653 8.5734,5.27686 13.838407,5.67106 1.165469,0.0873 3.064087,0.0878 4.229419,-0.001 9.962331,-0.76024 16.965061,-7.0034 21.007791,-18.72946 0.381,-1.105093 0.94723,-2.914154 1.33304,-4.017645 3.9538,-11.30865 8.65863,-20.129471 14.11459,-26.462195 0.76297,-0.885571 2.05735,-2.273178 2.91787,-3.063984 6.03677,-5.547767 14.78204,-8.48037 26.23581,-8.797942 1.16852,-0.0324 3.06446,-0.03345 4.23259,0.0098 9.77784,0.361883 17.94101,3.261403 24.48931,8.698294 0.89928,0.746651 2.29219,2.034427 3.11082,2.868748 5.85939,5.971695 9.01785,13.068686 9.47577,21.290989 0.065,1.167043 0.0666,3.064666 -0.0155,4.230538 -0.24848,3.526895 -1.12505,6.865367 -2.62968,10.015417 -0.50373,1.05461 -1.4304,2.71 -2.03098,3.71283 -1.79566,2.99833 -3.90526,5.80825 -6.32897,8.42973 -0.79355,0.8583 -2.13689,2.19607 -2.97715,3.00877 -3.21437,3.10892 -7.83186,7.30912 -13.85222,12.60049 -0.87796,0.77165 -2.30421,2.01974 -3.17983,2.79425 -7.45359,6.59284 -13.56906,12.42731 -18.3469,17.50389 -0.80117,0.85127 -2.09006,2.24131 -2.85901,3.12173 -4.19055,4.79807 -7.67393,10.26173 -10.45009,16.39099 -0.4823,1.06483 -1.2216,2.81077 -1.63429,3.90441 -2.46702,6.53761 -3.79387,14.08399 -3.98018,22.63913 -0.0255,1.1687 -0.0292,3.06483 0.0266,4.23239 0.29926,6.25887 1.9563,11.23765 4.97096,14.93629 0.73816,0.90563 2.11253,2.21951 3.02858,2.94515 3.58429,2.83925 7.7516,4.43947 12.502,4.80071 1.16542,0.0886 3.06366,0.0876 4.23006,0.0128 10.36176,-0.66523 16.8213,-6.34068 19.37831,-17.02681 0.27201,-1.13677 0.64262,-2.99587 0.90074,-4.13602 0.80366,-3.54979 1.45822,-6.35458 1.9638,-8.41417 0.27868,-1.13525 0.78587,-2.96214 1.18169,-4.06194 0.39804,-1.10598 0.8473,-2.19916 1.3477,-3.27955 0.49125,-1.06063 1.35797,-2.74851 1.96014,-3.75014 0.85679,-1.42514 1.90577,-2.9079 3.14691,-4.44835 0.73338,-0.91024 1.98221,-2.33676 2.77473,-3.19607 1.99732,-2.16565 4.38482,-4.54152 7.16273,-7.12747 0.85561,-0.79648 2.26324,-2.06562 3.13411,-2.84546 13.04661,-11.68281 22.45682,-20.30314 28.23046,-25.86132 0.84208,-0.81066 2.19839,-2.13473 3.01057,-2.97548 4.80128,-4.97019 9.00308,-10.66853 12.60519,-17.09487 0.57157,-1.01972 1.47309,-2.68759 1.98844,-3.73677 3.38011,-6.88149 5.19488,-14.70193 5.44479,-23.461535 0.0333,-1.168485 0.0334,-3.064303 -0.002,-4.232721 -0.35776,-11.772122 -3.71243,-22.758316 -10.06413,-32.958255 -0.61793,-0.992309 -1.65947,-2.57637 -2.32766,-3.535526 -6.93446,-9.954094 -16.41025,-17.964738 -28.42764,-24.031892 -1.04353,-0.526841 -2.75112,-1.349888 -3.81418,-1.836103 -12.63745,-5.780037 -27.0187,-8.790658 -43.14356,-9.031867 -1.16886,-0.01749 -3.06431,-0.01753 -4.23316,3.76e-4 z"
       id="path9" />
    <path
       style="fill:#ffec00;fill-opacity:1;stroke:url(#linearGradient10);stroke-width:4.56953"
       transform="translate(0.52820753,3.2885518)"
       d="m 125.43462,213.28638 28.43354,78.18313 a 0.76626637,0.76626637 179.9158 0 0 1.44101,-0.002 l 28.1721,-78.17889 c 0.39631,-1.09978 0.2795,-1.15056 -0.30323,-0.13726 -5.41593,9.41769 -31.5194,49.60956 -57.5017,0.0294 -0.54253,-1.03527 -0.64126,-0.99284 -0.24172,0.10576 z"
       id="path6" />
  </g>
  <g
     id="layer2"
     style="display:none">
    <path
       style="fill:none;stroke:url(#linearGradient2);stroke-width:10;stroke-dasharray:none"
       d="m 111.51446,128.21707 c 4.7509,-18.48971 12.32694,-39.839983 31.44611,-47.682612 12.48501,-3.572504 25.47949,1.028418 37.46936,4.53382 12.25522,4.449329 23.53387,16.215012 21.29394,30.141342 0.12554,12.21662 -8.56113,20.97664 -18.23104,26.88677 -22.24473,17.76237 -44.65498,39.07075 -51.79829,67.63961 -2.81156,11.81399 -1.88455,27.97488 10.54046,33.90058 10.63751,6.69406 28.09284,4.62066 32.12832,-8.87325 3.41906,-9.67825 4.01045,-20.68309 11.06496,-28.73653 11.57741,-18.50879 28.57857,-33.14967 47.4257,-43.91326 18.51944,-22.38092 21.87712,-55.47176 8.95914,-81.393119 C 237.48393,68.962544 225.61727,63.204434 215.82956,56.677324 189.30205,40.690203 155.57819,35.46693 126.35475,47.115337 110.39429,53.169676 95.110628,62.318339 83.635997,75.018472 74.099951,89.828684 63.412549,107.7566 69.068448,125.94929 c 5.979132,14.54336 28.124647,19.43773 39.387862,8.4484 1.47559,-1.79021 2.50784,-3.93067 3.05815,-6.18062 z"
       id="path2" />
    <path
       style="fill:none;stroke:url(#linearGradient3);stroke-width:10;stroke-dasharray:none"
       d="m 184.11536,241.09959 c -31.98835,85.07183 -60.3495,1.28369 -60.3495,1.28369 l 28.14073,63.87756 z"
       id="path3" />
  </g>
</svg>
